<svg xmlns="http://www.w3.org/2000/svg" width="600" height="600" viewBox="0 0 600 600">
  <path d="M50,100 Q150,50 250,100 T450,100" fill="none" stroke="rgba(255,255,255,0.03)" stroke-width="1"/>
  <path d="M100,200 Q200,150 300,200 T500,200" fill="none" stroke="rgba(255,255,255,0.025)" stroke-width="1"/>
  <path d="M0,300 Q100,250 200,300 T400,300 T600,300" fill="none" stroke="rgba(255,255,255,0.03)" stroke-width="1"/>
  <path d="M50,400 Q150,350 250,400 T450,400" fill="none" stroke="rgba(255,255,255,0.025)" stroke-width="1"/>
  <path d="M100,500 Q200,450 300,500 T500,500" fill="none" stroke="rgba(255,255,255,0.02)" stroke-width="1"/>
  <path d="M150,150 Q250,100 350,150 T550,150" fill="none" stroke="rgba(255,255,255,0.02)" stroke-width="1"/>
  <path d="M0,450 Q100,400 200,450 T400,450 T600,450" fill="none" stroke="rgba(255,255,255,0.025)" stroke-width="1"/>
  <circle cx="300" cy="300" r="80" fill="none" stroke="rgba(255,255,255,0.015)" stroke-width="0.5"/>
  <circle cx="300" cy="300" r="160" fill="none" stroke="rgba(255,255,255,0.01)" stroke-width="0.5"/>
  <circle cx="300" cy="300" r="240" fill="none" stroke="rgba(255,255,255,0.008)" stroke-width="0.5"/>
</svg>
