<svg xmlns="http://www.w3.org/2000/svg" viewBox="0 0 1440 320" preserveAspectRatio="none">
  <path fill="none" stroke="rgba(0,119,255,0.06)" stroke-width="1.5" d="M0,160 C320,200 640,120 960,160 C1120,180 1280,140 1440,160"/>
  <path fill="none" stroke="rgba(0,119,255,0.04)" stroke-width="1.5" d="M0,200 C320,240 640,160 960,200 C1120,220 1280,180 1440,200"/>
  <path fill="none" stroke="rgba(0,119,255,0.03)" stroke-width="1.5" d="M0,240 C320,280 640,200 960,240 C1120,260 1280,220 1440,240"/>
  <path fill="none" stroke="rgba(0,119,255,0.05)" stroke-width="1" d="M0,80 C320,120 640,40 960,80 C1120,100 1280,60 1440,80"/>
  <path fill="none" stroke="rgba(0,119,255,0.03)" stroke-width="1" d="M0,280 C320,320 640,240 960,280 C1120,300 1280,260 1440,280"/>
</svg>
